<?xml version="1.0" encoding="utf-8"?>
<!-- Generator: Adobe Illustrator 26.0.1, SVG Export Plug-In . SVG Version: 6.00 Build 0)  -->
<svg version="1.1" id="Layer_1" xmlns="http://www.w3.org/2000/svg" xmlns:xlink="http://www.w3.org/1999/xlink" x="0px" y="0px"
	 viewBox="0 0 54.4 50.3" style="enable-background:new 0 0 54.4 50.3;" xml:space="preserve">
<style type="text/css">
	.st0{fill:#67E8F9;}
	.st1{fill:#FFFFFF;enable-background:new    ;}
</style>
<g id="Layer_2_00000119807610291704822170000009284844275372535942_">
	<g id="Layer_3">
		<path class="st0" d="M24.2,0h19c2.8,0,5.2,2.3,5.2,5.1c0,0,0,0,0,0v5.4l6,13.3h-6l-0.1,6.7c0,0-7,0.6-9-4.3L36,28
			c0,0-0.3,5.6,12.2,7v10.1c0,2.8-2.3,5.2-5.2,5.2H24.2V0z"/>
		<path class="st0" d="M4.7,0h21.7C28.9,0,31,2.1,31,4.7v41c0,2.6-2.1,4.7-4.7,4.7H4.7c-2.6,0-4.7-2.1-4.7-4.7v-41
			C0,2.1,2.1,0,4.7,0z"/>
		<path class="st1" d="M3.4,2.9h24.2v9.4l6,11.8h-6L27.5,30c0,0-7,0.5-9-3.8l-3.3,1.5c0,0-0.4,5,12.2,6.3v13.5h-24L3.4,2.9z"/>
	</g>
</g>
</svg>
